<svg width="53" height="53" viewBox="0 0 53 53" fill="none" xmlns="http://www.w3.org/2000/svg">
<path d="M45.9785 3.3125H7.27508C5.16025 3.3125 3.3125 4.83418 3.3125 6.92416V45.7135C3.3125 47.8149 5.16025 49.6875 7.27508 49.6875H45.9671C48.0934 49.6875 49.6875 47.8025 49.6875 45.7135V6.92416C49.6999 4.83418 48.0934 3.3125 45.9785 3.3125ZM17.6877 41.9683H11.0441V21.3118H17.6877V41.9683ZM14.5957 18.1711H14.5481C12.4219 18.1711 11.0451 16.5884 11.0451 14.6071C11.0451 12.5896 12.4581 11.0441 14.6319 11.0441C16.8058 11.0441 18.1359 12.5782 18.1836 14.6071C18.1825 16.5884 16.8058 18.1711 14.5957 18.1711ZM41.9683 41.9683H35.3247V30.6737C35.3247 27.9679 34.3579 26.1191 31.9542 26.1191C30.1179 26.1191 29.031 27.3613 28.5475 28.5713C28.3664 29.0061 28.3177 29.5982 28.3177 30.2028V41.9683H21.6741V21.3118H28.3177V24.1864C29.2846 22.8097 30.7949 20.8284 34.3092 20.8284C38.6703 20.8284 41.9694 23.703 41.9694 29.9005L41.9683 41.9683Z" fill="white"/>
</svg>
