<svg width="25" height="24" viewBox="0 0 25 24" fill="none" xmlns="http://www.w3.org/2000/svg">
<path d="M24.7093 7.77407C24.4202 7.01322 23.9399 6.46464 23.32 6.18834L23.3117 6.18488C23.0295 6.0625 22.7292 5.99989 22.4261 6.00029H22.3928C20.9739 6.02394 19.5252 7.35932 18.7887 9.32346C18.2485 10.7598 18.1865 12.3046 18.623 13.4559C18.9116 14.2174 19.3929 14.7659 20.0154 15.0423L20.0222 15.0451C20.3043 15.1674 20.6047 15.23 20.9077 15.2297C22.3402 15.2297 23.8039 13.8943 24.554 11.9042C25.0875 10.4696 25.1463 8.92602 24.7093 7.77407ZM19.0397 16.2455C18.2214 15.701 17.4479 15.1859 16.9426 14.2606C15.5486 11.6995 14.7069 10.1535 12.4998 10.1535C10.2927 10.1535 9.44883 11.6995 8.05176 14.2606C7.54544 15.187 6.77034 15.7027 5.94939 16.2496C5.00811 16.876 4.03558 17.5232 3.61573 18.7969C3.45252 19.256 3.37029 19.7456 3.37351 20.239C3.37351 22.3127 4.83205 24 6.62396 24C7.54857 24 8.53256 23.6452 9.57385 23.2697C10.575 22.9086 11.6101 22.5354 12.505 22.5354C13.3999 22.5354 14.4323 22.9086 15.4299 23.2697C16.4691 23.6429 17.4484 23.9977 18.3756 23.9977C20.1649 23.9977 21.6208 22.3104 21.6208 20.2367C21.6223 19.7429 21.5383 19.2534 21.3734 18.7946C20.9535 17.5198 19.9805 16.872 19.0397 16.2455ZM6.97818 8.12594C7.59806 8.98717 8.38462 9.46133 9.19307 9.46133C9.30343 9.46132 9.41365 9.45226 9.5228 9.43422C11.209 9.15964 12.2596 6.88112 11.9148 4.24266C11.7705 3.13339 11.385 2.10027 10.8329 1.33423C10.214 0.474739 9.42643 0.00115371 8.61851 0.00115371C8.50814 0.00115762 8.39793 0.0102197 8.28878 0.0282653C6.60261 0.302841 5.55194 2.58136 5.89678 5.21982C6.04055 6.32736 6.42602 7.35932 6.97818 8.12594ZM15.4773 9.43422C15.5864 9.45226 15.6966 9.46132 15.807 9.46133C16.616 9.46133 17.402 8.98717 18.0219 8.12594C18.5735 7.35932 18.9569 6.32736 19.1028 5.21867C19.4476 2.58136 18.3969 0.302841 16.7108 0.0271115C16.6016 0.00906597 16.4914 3.91731e-06 16.381 0C15.5731 0.00115368 14.7855 0.474739 14.1667 1.33423C13.6145 2.10027 13.229 3.13339 13.0853 4.24381C12.7404 6.88112 13.7911 9.15964 15.4773 9.43422ZM4.97738 15.0451L4.98467 15.0423C5.60611 14.7659 6.08691 14.2179 6.37497 13.4571C6.81149 12.3034 6.75002 10.7604 6.21088 9.32404C5.46443 7.33625 4.0012 6.00029 2.57028 6.00029C2.26726 5.9998 1.96686 6.06242 1.68474 6.18488L1.67745 6.18776C1.05757 6.46176 0.576773 7.01207 0.288713 7.77292C-0.147806 8.9266 -0.086339 10.4696 0.452798 11.906C1.19926 13.8938 2.66248 15.2297 4.0934 15.2297C4.3959 15.23 4.69575 15.1674 4.97738 15.0451Z" fill="black"/>
</svg>
